<svg xmlns="http://www.w3.org/2000/svg" width="125.627" height="131.078" viewBox="0 0 125.627 131.078">
  <g id="_3eco" data-name="3eco" transform="translate(-0.006 0.006)">
    <path id="Path_2411" data-name="Path 2411" d="M69.423,59.806a36.45,36.45,0,0,1,7.443,4c7.918,5.693,13.077,13.254,14.7,22.927,1.56,9.316-.491,18.034-5.363,26.054-6.683,11-16.648,17.055-29.258,18.9a45.333,45.333,0,0,1-21.087-1.671A35.45,35.45,0,0,1,18.077,117.1c-4.46-6.07-6.862-12.993-8.343-20.29-.111-.549,0-.752.612-.747,3.529.024,7.06.04,10.589,0,.757,0,.858.422.995.929a45.2,45.2,0,0,0,4.265,10.583c3.83,6.709,9.731,10.533,17.179,11.966,7.126,1.367,14.181,1,20.787-2.169,8.527-4.093,13.911-10.789,15.432-20.28C81.619,84.44,73.258,72.078,60.37,68.729A79.177,79.177,0,0,0,45.139,66.52c-1.372-.082-1.372-.071-1.372-1.412,0-3,.034-6-.024-9.005-.016-.845.264-1.027,1.04-1.035a36.682,36.682,0,0,0,17.356-4.363c4.814-2.615,8.358-6.334,9.7-11.755a17.534,17.534,0,0,0-4.611-17.139c-5.3-5.608-11.99-7.522-19.491-6.973-8.86.649-14.7,5.624-18.646,13.246a50.238,50.238,0,0,0-2.513,5.577,1.009,1.009,0,0,1-1.116.808q-5.492-.05-10.984,0c-.686,0-.75-.2-.607-.792,1.818-7.437,4.782-14.3,10.1-19.95A33.158,33.158,0,0,1,41.626,3.646c9.813-2.043,19.187-.736,27.8,4.468,9.789,5.909,15.418,14.555,15.783,26.128.285,9.008-3.547,16.247-10.491,21.906a45.159,45.159,0,0,1-5.292,3.658Z" transform="translate(-9.69 -1.876)" fill="#2d0db2"/>
    <path id="Path_2412" data-name="Path 2412" d="M149.55,17.155a4.743,4.743,0,1,1,4.751-4.777,4.732,4.732,0,0,1-4.751,4.777Z" transform="translate(-109.136 -5.515)" fill="#f99a00"/>
    <path id="Path_2413" data-name="Path 2413" d="M28.751,381.114a4.706,4.706,0,1,1,4.8-4.605,4.736,4.736,0,0,1-4.8,4.605Z" transform="translate(-20.253 -273.473)" fill="#f99a00"/>
    <path id="Path_2414" data-name="Path 2414" d="M276.971,381.457a4.646,4.646,0,1,1,4.822-4.582A4.729,4.729,0,0,1,276.971,381.457Z" transform="translate(-202.987 -273.815)" fill="#f99a00"/>
    <path id="Path_2415" data-name="Path 2415" d="M344.407,86.979c.037-.053.063-.132.113-.148a4.157,4.157,0,0,1,.475-.116,21.568,21.568,0,0,0,13.13-8.34c.375-.512.351-.707-.187-1.024a26.558,26.558,0,0,1-2.721-1.8c-.676-.528-1.087-.5-1.668.185a17.762,17.762,0,0,1-11.174,6.334c-7.089,1.093-14.64-1.32-18.6-8.036-3.009-5.1-3.5-10.525-.963-15.9,4.452-9.422,14.722-11.642,23.249-8.741a16.242,16.242,0,0,1,7.6,5.479c.47.6.821.655,1.436.219.913-.647,1.884-1.211,2.853-1.774.443-.264.6-.443.264-.961a17.907,17.907,0,0,0-4.576-4.875,25.129,25.129,0,0,0-10.8-4.157c.084-.058.127-.111.179-.121,6.709-1.449,11.407-5.458,14.608-11.409.346-.641.24-.882-.38-1.153-.752-.33-1.462-.757-2.191-1.14-1.584-.834-1.615-.85-2.536.649a16.583,16.583,0,0,1-9.945,7.794c-5.342,1.459-10.406,1-14.856-2.594a16.563,16.563,0,0,1-6.1-12.286c-.063-.889.09-1.082.979-1.079q16.627.048,33.254.021h2.969c.383,0,.583-.034.573-.528a22.784,22.784,0,0,0-2.027-9.5C353.618,4.255,347.479.008,338.859-.472a20.1,20.1,0,0,0-13.223,3.457,22.547,22.547,0,0,0-9.546,16.392c-1.172,10,5.453,22.357,17.815,24.149a23.174,23.174,0,0,0-13.539,8.446,21.851,21.851,0,0,0-4.539,15.292,20.372,20.372,0,0,0,5.542,12.7,22.2,22.2,0,0,0,12.14,6.843c-12.932,3.257-18.575,16.139-16.321,26.392,2.045,9.319,10.2,18.3,23.647,17.282,10.293-.773,18.435-9.237,19.62-19.235A22.344,22.344,0,0,0,344.407,86.979ZM336.489,4.7a16.224,16.224,0,0,1,13.4,5.26,16.13,16.13,0,0,1,3.391,6.725c.127.438.053.625-.42.586H323c-.264,0-.528-.024-.792-.037,1.779-7.651,7.44-12.154,14.276-12.526Zm12.462,117.116a15.945,15.945,0,0,1-13.766,3.207,16.113,16.113,0,0,1-12.692-13.2,30.288,30.288,0,0,1-.282-3.143,16.713,16.713,0,0,1,12.932-16.656c6.7-1.467,12.238.792,16.413,6.155A17.113,17.113,0,0,1,348.951,121.816Z" transform="translate(-234.98 0.51)" fill="#f99a00"/>
    <path id="Path_2416" data-name="Path 2416" d="M153.921,19.472a3.269,3.269,0,1,1,3.154-3.1A3.167,3.167,0,0,1,153.921,19.472Z" transform="translate(-113.516 -9.426)" fill="#2d0db2"/>
    <path id="Path_2417" data-name="Path 2417" d="M36.371,381.253a3.163,3.163,0,0,1-6.321-.034,3.176,3.176,0,0,1,3.238-3.051,3.138,3.138,0,0,1,3.083,3.085Z" transform="translate(-24.672 -278.23)" fill="#2d0db2"/>
    <path id="Path_2418" data-name="Path 2418" d="M281.455,384.279a3.117,3.117,0,0,1-3.135-3.027,3.183,3.183,0,0,1,3.2-3.083,3.138,3.138,0,0,1,3.117,3.054,3.085,3.085,0,0,1-3.183,3.056Z" transform="translate(-207.418 -278.232)" fill="#2d0db2"/>
  </g>
</svg>
